<?xml version="1.0" encoding="UTF-8"?>
<svg id="Layer_1" data-name="Layer 1" xmlns="http://www.w3.org/2000/svg" viewBox="0 0 1367.66 397.96">
  <defs>
    <style>
      .cls-1 {
        fill: #75728c;
      }

      .cls-1, .cls-2, .cls-3 {
        fill-rule: evenodd;
      }

      .cls-2 {
        fill: #14a647;
      }

      .cls-3 {
        fill: #f1a604;
      }
    </style>
  </defs>
  <path id="jurassic" class="cls-2" d="M1332.58,280.91V69.71h35.09v211.2h-35.09Zm-144.4-50.38c55.78-34.41,77.37-79.4,78.27-114.48h-70.85v-31.94h106.39v22.94c0,60.5-31.71,112.46-92.44,151.37l-21.37-27.89Zm14.17-55.78h-28.34v106.16h-35.09V69.71h35.09v73.32h28.34v31.71Zm-199.28,77.6v-101.21h69.05v-36.89h-69.05v-31.26h104.14v98.74h-69.05v39.36h17.99c20.69,0,42.51-1.8,65.68-5.4l4.05,30.14c-22.72,4.27-47.91,6.52-76.02,6.52h-46.78Zm-53.51,36.97h-40.44v-63.77h-45.62v63.77h-40.44v-63.77h-51.84v-36.81h230.18v36.81h-51.84v63.77Zm21-116.39l-89.95-37.84c-17.63,14.78-44.32,27.48-81.39,37.84l-14-34.73c52.88-16.59,76.47-34.22,81.65-51.32h-67.91V51.88h174.71v34.99h-65.84c-.52,5.7-1.81,11.41-3.89,16.85l83.47,34.73-16.85,34.47Z"/>
  <path id="little" class="cls-3" d="M812.67,350.13l-2.41,2.41c-.54,.53-.94,1.07-1.21,1.61l-12.46,6.03-5.23,1.61-2.41,.8c-.54,0-1.55,.46-3.01,1.41-1.48,.94-2.61,1.41-3.42,1.41l-3.62,1.21c-.8,.53-1.75,.94-2.81,1.21-1.61,.8-2.81,1.21-3.62,1.21h-2.41c-.54,0-1.75,.4-3.62,1.21-1.88,.8-3.08,1.21-3.62,1.21l-5.23,2.41h-1.61c-.54,0-1.34,.26-2.41,.8-1.07,.53-1.88,.8-2.41,.8l-22.51,7.24c-.54,0-1.55,.46-3.01,1.41-1.48,.94-2.48,1.41-3.01,1.41l-6.43,1.21c-.54,0-2.01,.6-4.42,1.81s-3.89,1.81-4.42,1.81l-5.23,.8-2.41,1.61-1.21,1.61-2.41,1.21c-.54,0-1.81,.13-3.82,.4-2.01,.26-3.29,.4-3.82,.4l-6.03,1.61h-1.61c-.27-.27-.67-.54-1.21-.8-1.07-.54-1.88-.8-2.41-.8l-6.43-2.01-2.41-3.22c0-.27-.14-.54-.4-.8-.27-.27-.54-.67-.8-1.21l-.8-1.61c0-.54-.27-1.27-.8-2.21-.54-.94-.8-1.81-.8-2.61v-7.24c.26-.54,.53-1.34,.8-2.41,.53-1.61,1.07-2.95,1.61-4.02,0-.8,.4-1.88,1.21-3.22,.53-.8,1.07-1.48,1.61-2.01l3.62-4.82,2.41-4.02c.26-.27,.67-.74,1.21-1.41,.53-.67,1.07-1.27,1.61-1.81,.8-.8,1.47-1.61,2.01-2.41,0-.8,1.14-1.95,3.42-3.42,2.27-1.48,3.42-2.61,3.42-3.42l.8-2.01,2.81-2.81,2.9-4.82,7.95-8.04,1.61-2.01c.53-1.34,1.74-3.15,3.62-5.43,1.87-2.27,3.88-4.68,6.03-7.24,2.14-2.54,4.28-4.96,6.43-7.24,2.14-2.27,3.88-4.22,5.23-5.83l-14.07,8.04-2.41,1.21-6.43,2.01-4.82,3.22c-.27,0-.94,.27-2.01,.8-1.07,.54-2.21,1.07-3.42,1.61-1.21,.54-2.41,1.07-3.62,1.61-1.21,.54-1.95,.8-2.21,.8l-2.81,1.21c-.27,0-.94,.27-2.01,.8l-1.61,.8h-7.64c-.8-.26-1.75-.67-2.81-1.21-2.15-1.07-3.49-1.87-4.02-2.41l-2.41-2.01c0-.53-.27-1.34-.8-2.41-.27-.53-.4-.94-.4-1.21,0-1.07,.13-2.14,.4-3.22,.26-1.07,.4-1.87,.4-2.41,.26-.53,.67-1.21,1.21-2.01,.53-.53,1-1.14,1.41-1.81,.4-.67,.87-1.27,1.41-1.81l9.65-12.46,3.62-3.22,2.81-4.02,9.65-12.46,2.1-4.02c.98-.26,1.65-1.14,2.73-2.61,1.07-1.47,2.27-3.08,3.62-4.82,1.34-1.74,2.54-3.35,3.62-4.82,1.07-1.47,1.74-2.34,2.01-2.61l2.41-4.02,2.41-2.41c.26-.26,.87-1,1.81-2.21,.94-1.21,1.94-2.47,3.01-3.82,1.07-1.34,1.94-2.54,2.61-3.62,.67-1.07,1-1.74,1-2.01l-5.63,2.41c-.54,.27-2.01,1.07-4.42,2.41-2.41,1.34-3.89,2.01-4.42,2.01l-2.81,1.21c-.27,.27-.94,.6-2.01,1-1.07,.4-2.28,.8-3.62,1.21-1.34,.4-2.68,.8-4.02,1.21-1.34,.4-2.28,.74-2.81,1l-3.62,1.61c-.54,0-1.61,.4-3.22,1.21s-2.68,1.21-3.22,1.21l-2.41,1.61c-.54,.54-1.68,1.07-3.42,1.61-1.75,.54-3.42,1.07-5.02,1.61-2.15,.8-4.29,1.48-6.43,2.01h-4.42l-3.22-.8-2.01-2.81c-.27-.26-.54-.67-.8-1.21-.54-1.07-.8-1.87-.8-2.41v-2.41c0-.53,.4-1.27,1.21-2.21,.8-.94,1.21-1.67,1.21-2.21,.26-.26,1.21-.94,2.81-2.01,1.61-1.07,3.35-2.07,5.23-3.01,1.87-.94,3.62-1.87,5.23-2.81,1.61-.94,2.68-1.54,3.22-1.81,.26-.26,1.21-.73,2.81-1.41,1.61-.67,3.35-1.34,5.23-2.01,1.87-.67,3.62-1.34,5.23-2.01,1.61-.67,2.54-1.14,2.81-1.41l5.23-2.01c.8-.8,2.27-1.61,4.42-2.41,2.14-.8,4.28-1.67,6.43-2.61,2.14-.94,4.08-1.74,5.83-2.41,1.74-.67,2.74-1.14,3.01-1.41,.8,0,2.07-.4,3.82-1.21,1.74-.8,3.01-1.21,3.82-1.21,.53,0,2.21-.87,5.02-2.61,2.81-1.74,4.48-2.61,5.02-2.61,1.34-.53,3.35-1.27,6.03-2.21,2.68-.94,4.42-1.41,5.23-1.41h7.24c.53,.27,1.07,.4,1.61,.4,.53,.27,1.34,.4,2.41,.4,.8,0,1.47,.27,2.01,.8l.8,.8c0,.27,.13,.67,.4,1.21,.53,1.07,.8,1.75,.8,2.01v8.84c0,.8-1.07,2.15-3.22,4.02-2.15,1.88-3.22,3.08-3.22,3.62l-1.61,2.81c0,.54-.94,1.75-2.81,3.62-1.88,1.88-2.81,3.08-2.81,3.62l-3.22,4.02-3.62,4.82c-.27,.54-.87,1.61-1.81,3.22-.94,1.61-2.01,3.29-3.22,5.02-1.21,1.75-2.35,3.35-3.42,4.82-1.07,1.48-1.88,2.61-2.41,3.42-.27,.27-.87,.94-1.81,2.01-.94,1.07-1.95,2.21-3.01,3.42-1.07,1.21-2.01,2.41-2.81,3.62s-1.34,1.95-1.61,2.21l-4.02,5.23c0,.27-.54,1.14-1.61,2.61-1.07,1.48-2.35,3.01-3.82,4.62-1.48,1.61-2.75,3.15-3.82,4.62-1.07,1.48-1.61,2.35-1.61,2.61l14.07-6.03c.53,0,1.54-.46,3.01-1.41,1.47-.94,2.47-1.41,3.01-1.41l2.81-1.21,7.24-3.22c.26,0,1.07-.2,2.41-.6,1.34-.4,2.68-.73,4.02-1,1.34-.26,2.61-.53,3.82-.8,1.21-.26,1.94-.4,2.21-.4h13.67c.53,0,1.87,.54,4.02,1.61,1.07,.54,2.01,.94,2.81,1.21l.8,2.41c.26,.54,.53,1.14,.8,1.81,.26,.67,.4,1.14,.4,1.41v4.02l-1.21,3.62-.8,1.21-10.45,8.84-7.95,7.64-8.13,10.05c0,.54-1.14,1.55-3.42,3.01-2.28,1.48-3.42,2.61-3.42,3.42l-2.01,3.62c0,.54-.6,1.34-1.81,2.41-1.21,1.07-1.81,2.01-1.81,2.81l-1.21,1.21c-.54,.26-1.55,1.27-3.01,3.01-1.48,1.74-3.08,3.62-4.82,5.63-1.75,2.01-3.35,3.88-4.82,5.63-1.48,1.74-2.35,2.75-2.61,3.01,0,.26-.8,1.21-2.41,2.81s-3.35,3.42-5.23,5.43c-1.88,2.01-3.62,3.82-5.23,5.43s-2.41,2.54-2.41,2.81l16.48-6.03c.53-.27,1.61-.47,3.22-.6,1.61-.14,2.68-.2,3.22-.2l2.01-1.21,4.02-1.21,4.82-2.81,3.62-1.21,6.83-1.61,5.23-.8c.26,0,.94-.14,2.01-.4,1.07-.27,2.34-.54,3.82-.8,1.47-.27,2.81-.54,4.02-.8,1.21-.27,2.07-.4,2.61-.4l2.01-1.21c.53,0,1.34-.27,2.41-.8l1.61-.8h1.21c.26,0,1-.14,2.21-.4,1.21-.27,2.47-.6,3.82-1,1.34-.4,2.54-.74,3.62-1,1.07-.27,1.74-.4,2.01-.4,.8,0,2.07-.07,3.82-.2,1.74-.14,3.48-.34,5.23-.6,1.74-.27,3.28-.47,4.62-.6,1.34-.14,2.14-.2,2.41-.2h18.89c.53,0,1.34,.46,2.41,1.41,1.07,.94,1.87,1.41,2.41,1.41l1.21,2.01v1.61l-1.21,2.41Zm-36.58-198.98v3.22l-5.23,4.42c-1.34,.54-3.42,1.21-6.23,2.01-2.81,.8-5.83,1.61-9.04,2.41-3.22,.8-6.23,1.61-9.04,2.41-2.81,.8-4.76,1.48-5.83,2.01-.8,0-2.01,.27-3.62,.8-1.61,.54-3.22,1.14-4.82,1.81-1.61,.67-3.15,1.28-4.62,1.81-1.48,.54-2.48,.8-3.01,.8l-10.85,4.02-5.63,2.81-12.86,4.42-9.65,4.02-47.03,20.1-10.85,4.42h-2.41l-4.42,1.61h-7.64l-5.63-.4-4.42-4.82c0-.53,.06-1,.2-1.41,.13-.4,.2-1.54,.2-3.42l2.41-4.42c.53,0,1.47-.4,2.81-1.21,1.34-.8,2.81-1.74,4.42-2.81,1.61-1.07,3.22-2.14,4.82-3.22,1.61-1.07,2.81-1.87,3.62-2.41,.53-.53,2.07-1.34,4.62-2.41,2.54-1.07,5.36-2.14,8.44-3.22,3.08-1.07,6.03-2.07,8.84-3.01,2.81-.94,4.89-1.81,6.23-2.61,13.93-6.69,27.06-12.26,39.39-16.68,12.32-4.42,25.32-8.91,38.99-13.47,.8,0,2.07-.2,3.82-.6,1.74-.4,3.62-.8,5.63-1.21,2.01-.4,3.75-.8,5.23-1.21,1.47-.4,2.47-.46,3.01-.2,1.34,0,3.48-.4,6.43-1.21,2.95-.8,5.23-1.07,6.83-.8h7.24l7.24,2.41,2.81,2.41v.4c0,.27-.07,.6-.2,1-.14,.4-.2,.87-.2,1.41Zm-34.97-47.43l-1.21,2.01c-.8,0-1.75,.54-2.81,1.61l-1.21,1.21c-.8,.8-3.01,1.75-6.63,2.81-3.62,1.07-6.1,2.01-7.44,2.81l-5.23,1.61c-.8,0-2.28,.74-4.42,2.21-2.15,1.48-3.76,2.21-4.82,2.21l-7.64,3.22-2.41,1.61-6.83,2.81c-.27,0-.94,.27-2.01,.8-1.07,.54-2.15,1.07-3.22,1.61-1.07,.54-2.08,1.07-3.01,1.61-.94,.54-1.54,.8-1.81,.8-.8,.54-2.21,1.21-4.22,2.01-2.01,.8-3.56,1.21-4.62,1.21-1.34,.54-3.29,1.34-5.83,2.41-2.55,1.07-5.23,2.15-8.04,3.22-2.81,1.07-5.36,2.08-7.64,3.01-2.28,.94-3.69,1.55-4.22,1.81l-4.02,2.41c-.54,1.34-1.34,1.95-2.41,1.81-1.07-.13-2.55-.2-4.42-.2h-.8c-1.07,0-2.41-.33-4.02-1-1.61-.67-2.68-1.54-3.22-2.61l-1.61-2.41c-.54-.8-.8-2.47-.8-5.02v-4.62l1.21-6.83c.26-1.87,.4-5.36,.4-10.45v-16.28c0-5.76-.07-11.12-.2-16.08-.14-4.96-.2-8.5-.2-10.65,0-.26,.06-.94,.2-2.01,.13-1.07,.26-2.21,.4-3.42,.13-1.21,.26-2.34,.4-3.42,.13-1.07,.2-1.74,.2-2.01l1.21-16.88c-.54,0-1.95-.06-4.22-.2-2.28-.13-4.09-.2-5.43-.2l-2.41-2.41v-4.42l1.21-2.81c.53-.53,1.07-1.21,1.61-2.01,1.34-1.34,2.27-2.01,2.81-2.01,.26-.53,.67-1.07,1.21-1.61,.53-1.34,1.07-2.01,1.61-2.01l11.66-4.82,5.63-1.61c.26,0,1.07-.2,2.41-.6,1.34-.4,2.81-.94,4.42-1.61,1.61-.67,3.01-1.21,4.22-1.61,1.21-.4,2.07-.6,2.61-.6l5.23-1.61,16.48-6.03,2.81-1.21h2.41l4.82-1.61c2.41-.8,4.42-1.74,6.03-2.81,.26,0,1.14-.2,2.61-.6,1.47-.4,2.95-.87,4.42-1.41,1.47-.53,2.81-1,4.02-1.41,1.21-.4,1.94-.6,2.21-.6l4.02-.4h3.62c.8,0,1.47-.13,2.01-.4h2.41l3.22,1.61v.8c.26,1.07,.26,2.01,0,2.81-.27,.54-.67,1.07-1.21,1.61,0,.54-.14,1-.4,1.41-.27,.4-.54,.87-.8,1.41l-1.21,1.21c-.54,.27-1.21,.67-2.01,1.21-.54,.54-1.14,.94-1.81,1.21-.67,.27-1.14,.54-1.41,.8l-2.81,.8c-.8,0-1.88,.74-3.22,2.21-1.34,1.48-2.41,2.21-3.22,2.21-.54,0-1.54,.27-3.01,.8-1.48,.54-3.22,1.14-5.23,1.81-2.01,.67-3.96,1.34-5.83,2.01-1.88,.67-3.35,1.14-4.42,1.41-.54,0-2.08,.74-4.62,2.21-2.55,1.48-4.22,2.48-5.02,3.01l-2.01,1.21c-.8,.54-1.75,.94-2.81,1.21-1.07,.27-2.15,.67-3.22,1.21l-4.02,1.61c-.54,.54-1.81,1.14-3.82,1.81-2.01,.67-4.09,1.34-6.23,2.01-2.15,.67-4.22,1.34-6.23,2.01-2.01,.67-3.29,1.14-3.82,1.41h-.4l.8,2.81c0,.27,.06,1.48,.2,3.62,.13,2.15,.26,4.49,.4,7.03,.13,2.55,.26,4.89,.4,7.03,.13,2.15,.2,3.35,.2,3.62v3.22c0,.8,.13,1.61,.4,2.41l4.02-1.61c.53,0,1.54-.46,3.01-1.41,1.47-.94,2.74-1.41,3.82-1.41,.8-.8,2.27-1.67,4.42-2.61,2.14-.94,3.48-1.41,4.02-1.41l4.82-1.21c.53,0,1.54-.6,3.01-1.81,1.47-1.21,2.61-1.81,3.42-1.81l2.81-1.61c.8,0,2.41-.4,4.82-1.21s4.02-1.21,4.82-1.21l2.81-1.61,32.96-8.84h2.81l2.01,1.61,2.41,3.22c-.54,.54-.94,1.07-1.21,1.61-.8,.8-1.21,1.48-1.21,2.01l-1.21,3.22c-.54,.54-1.07,.94-1.61,1.21-.8,.8-1.48,1.21-2.01,1.21l-25.32,12.06c-.8,0-2.48,.54-5.02,1.61-2.55,1.07-4.09,1.61-4.62,1.61l-3.22,1.21-3.62,3.22c-.8,.8-2.68,1.68-5.63,2.61-2.95,.94-4.82,1.81-5.63,2.61l-4.02,1.21-1.61,1.61c-1.07,1.07-1.88,1.61-2.41,1.61l-1.61,.8c-.27,0-.94,.27-2.01,.8-1.07,.54-2.35,1.14-3.82,1.81-1.48,.67-2.81,1.28-4.02,1.81-1.21,.54-1.95,.8-2.21,.8l-.8,.8,.4,20.9,.8,5.23,4.02-1.21c.53-.26,1.61-.8,3.22-1.61,1.61-.8,2.81-1.21,3.62-1.21l2.41-.4c.53,0,2.07-.67,4.62-2.01,2.54-1.34,4.22-2.01,5.02-2.01l1.21-.8,6.83-2.01c.8,0,3.01-.6,6.63-1.81,3.62-1.21,6.09-1.94,6.72-2.21l4.34-2.41c.53,0,2.27-.46,5.23-1.41,2.95-.94,4.82-1.41,5.63-1.41l6.83-2.01,4.02-.8c.26,0,1.21-.26,2.81-.8l2.41-.8,12.46-1.21,3.22,2.01,1.21,2.41-.8,1.61c-.27,.54-.4,1.34-.4,2.41Zm-153.76,19.42c-.14,8.84-.34,18.29-.6,28.34-.27,10.05-.47,19.57-.6,28.54-.14,8.98-.27,16.82-.4,23.52-.14,6.7-.2,11.12-.2,13.27v41.4l-4.42,8.44h-2.01c-1.34-.8-2.55-1.61-3.62-2.41-2.41-1.34-3.62-2.68-3.62-4.02l-1.61-4.42c0-.8-.4-3.28-1.21-7.44-.8-4.15-1.21-7.57-1.21-10.25-1.34-10.99-2.08-22.11-2.21-33.36-.14-11.26-.07-22.77,.2-34.57V92.99c0-1.07,.33-3.48,1-7.24,.67-3.75,1-6.29,1-7.64v-7.24c0-.8,.06-2.07,.2-3.82,.13-1.74,.46-3.42,1-5.02,.26-1.87,.67-3.88,1.21-6.03l4.02-6.03,4.82-2.01h2.01l2.41,2.01,2.01,4.42c0,1.07,.13,3.15,.4,6.23,.26,3.08,.53,6.43,.8,10.05,.26,3.62,.53,6.97,.8,10.05,.26,3.08,.4,5.16,.4,6.23,0,2.15-.07,6.5-.2,13.06-.14,6.57-.27,14.27-.4,23.11Zm-40.6,73.16c-4.42,3.76-9.04,7.64-13.87,11.66-4.82,4.02-9.52,7.91-14.07,11.66-4.56,3.76-7.91,6.43-10.05,8.04-2.15,1.61-6.23,4.56-12.26,8.84-6.03,4.29-12.53,8.91-19.5,13.87-6.97,4.96-13.67,9.65-20.1,14.07-6.43,4.42-10.99,7.44-13.67,9.04-2.15,1.34-4.36,2.41-6.63,3.22-2.28,.8-4.89,1.21-7.84,1.21h-2.41l-4.82-2.01-1.61-2.41-2.81-4.82v-10.45l1.21-1.21c1.07-1.07,1.61-2.01,1.61-2.81,0-.53,.53-1.81,1.61-3.82,1.07-2.01,2.34-4.08,3.82-6.23,1.47-2.14,2.74-4.22,3.82-6.23,1.07-2.01,1.61-3.28,1.61-3.82l4.02-8.04c.8-1.61,2.01-4.15,3.62-7.64,1.61-3.48,3.35-7.03,4.51-10.65,2.59-3.62,4.34-6.97,5.94-10.05,1.61-3.08,2.68-5.16,3.22-6.23l4.82-8.84c0-.53,.46-1.67,1.41-3.42,.94-1.74,1.87-3.62,2.81-5.63,.94-2.01,1.87-3.82,2.81-5.43,.94-1.61,1.41-2.68,1.41-3.22l4.42-6.83,4.82-9.25c-.8,.8-1.95,1.75-3.42,2.81-1.48,1.07-3.01,2.15-4.62,3.22-1.61,1.07-3.15,2.15-4.62,3.22-1.48,1.07-2.35,2.01-2.61,2.81-1.34,0-3.29,1.07-5.83,3.22-2.55,2.15-4.36,3.89-5.43,5.23l-14.07,11.66-4.42,2.41h-4.42l-4.42-2.41-4.42-4.42c0-.53-.27-1.61-.8-3.22-.27-.8-.4-1.47-.4-2.01l6.43-13.27c0-.53,.46-1.47,1.41-2.81,.94-1.34,2.01-2.81,3.22-4.42,1.21-1.61,2.27-3.08,3.22-4.42,.94-1.34,1.41-2.27,1.41-2.81l4.02-7.24c0-.53,.33-1.34,1-2.41,.67-1.07,1.41-2.27,2.21-3.62,1.07-1.34,2.27-2.81,3.62-4.42,.26-.53,.87-1.67,1.81-3.42,.94-1.74,1.94-3.55,3.01-5.43,1.07-1.87,1.94-3.62,2.61-5.23,.67-1.61,1-2.68,1-3.22l15.28-28.14c-.54,0-1.75,.4-3.62,1.21-1.88,.8-3.89,1.68-6.03,2.61-2.15,.94-4.16,1.81-6.03,2.61-1.88,.8-3.08,1.21-3.62,1.21l-4.42,2.41h-2.41c-2.68,1.07-5.36,2.15-8.04,3.22-2.15,.8-4.29,1.68-6.43,2.61-2.15,.94-3.76,1.68-4.82,2.21l-4.82,2.01-6.03,2.01h-2.41c-1.07,0-2.41-.26-4.02-.8-.8-.26-1.61-.67-2.41-1.21l-2.01-2.01v-8.44l2.01-2.41c.53-.98,1.74-.94,3.62-2.01,1.87-1.07,3.95-2.14,6.23-3.22,2.27-1.07,4.48-2.07,6.63-3.01,2.14-.94,3.75-1.67,4.82-2.21,1.34,0,3.28-.73,5.83-2.21,2.54-1.47,4.35-2.21,5.43-2.21l45.42-16.88c1.34,0,2.95-.26,4.82-.8,1.87-.53,3.35-.8,4.42-.8h2.01c.8,0,1.74,.8,2.81,2.41,.53,.8,1.07,1.48,.89,2.01v8.44l-2.9,7.24c-2.15,4.29-3.76,7.78-4.82,10.45,0,1.07-1.21,2.75-3.62,5.02-2.41,2.28-3.62,4.09-3.62,5.43,0,.54-.47,1.61-1.41,3.22-.94,1.61-1.88,3.42-2.81,5.43-.94,2.01-1.88,3.89-2.81,5.63-.94,1.75-1.41,2.88-1.41,3.42l-4.42,6.03c-1.07,1.34-2.41,3.62-4.02,6.83-1.61,3.22-2.81,5.36-3.62,6.43l-4.42,7.24,7.64-3.22,8.84-4.82,6.43-2.01c1.07,0,2.95-1,5.63-3.01,2.68-2.01,4.55-3.01,5.63-3.01l4.02-1.61h8.44l4.42,1.61,4.42,4.02v4.82l-2.41,6.03c0,1.34-1.07,3.29-3.22,5.83-2.15,2.55-3.22,4.49-3.22,5.83-1.07,2.15-2.68,5.09-4.82,8.84-2.15,3.76-4.36,7.64-6.63,11.66-2.28,4.02-4.42,7.78-6.43,11.26-2.01,3.49-3.29,5.77-3.82,6.83l-17.69,35.37-4.82,11.66,12.06-8.44c.53,0,1.47-.53,2.81-1.61,1.34-1.07,2.81-2.34,4.42-3.82,1.61-1.47,3.08-2.74,4.42-3.82,1.34-1.07,2.27-1.61,2.81-1.61,1.34-.26,3.28-1.27,5.83-3.01,2.54-1.74,5.16-3.62,7.84-5.63,2.68-2.01,5.23-3.88,7.64-5.63,2.41-1.74,4.15-2.88,5.23-3.42,3.22-2.14,6.16-4.08,8.84-5.83,2.68-1.74,5.29-3.35,7.84-4.82,2.54-1.47,5.16-2.95,7.84-4.42,2.68-1.47,5.76-3.01,9.25-4.62l3.62-2.81,6.83-.8,3.62-.4,5.63,1.61v4.42l-5.63,7.24c-2.15,1.61-5.43,4.29-9.85,8.04Z"/>
  <path id="my" class="cls-1" d="M353.18,281.58V75.63h34.22v205.95h-34.22Zm-83.13-25.66c-31.8,0-57.9-19.3-57.9-70.4v-15.87h-23.62v116.33h-38.45V54.56h38.45v80.35h24.98c5.73-37.09,28.99-51.59,56.54-51.59,31.58,0,57.68,19.3,57.68,70.4v31.8c0,51.1-26.1,70.4-57.68,70.4Zm23.47-102.21c0-30.71-11.19-39.48-23.47-39.48s-23.69,8.77-23.69,39.48v31.8c0,30.71,11.41,39.48,23.69,39.48s23.47-8.77,23.47-39.48v-31.8ZM0,69.1H120.27V250H0V69.1ZM38.45,215h43.38V104.09H38.45v110.91Z"/>
</svg>